<svg xmlns="http://www.w3.org/2000/svg" viewBox="0 0 512 512"><defs><linearGradient id="bg" x1="0" y1="0" x2="1" y2="1"><stop offset="0%" stop-color="#3b5bf6"/><stop offset="100%" stop-color="#06b6d4"/></linearGradient><style>#mmini{display:none}@media (max-width:40px){#mfull{display:none}#mmini{display:inline}}</style></defs><rect width="512" height="512" fill="url(#bg)"/><g transform="translate(256 256) scale(0.82) translate(-256 -256)"><g id="mfull" fill="#ffffff"><rect x="131.56" y="178.22" width="8.28" height="8.28"/><rect x="139.33" y="178.22" width="8.28" height="8.28"/><rect x="147.11" y="178.22" width="8.28" height="8.28"/><rect x="154.89" y="178.22" width="8.28" height="8.28"/><rect x="217.11" y="178.22" width="8.28" height="8.28"/><rect x="224.89" y="178.22" width="8.28" height="8.28"/><rect x="232.67" y="178.22" width="8.28" height="8.28"/><rect x="240.44" y="178.22" width="8.28" height="8.28"/><rect x="248.22" y="178.22" width="8.28" height="8.28"/><rect x="256.00" y="178.22" width="8.28" height="8.28"/><rect x="131.56" y="186.00" width="8.28" height="8.28"/><rect x="139.33" y="186.00" width="8.28" height="8.28"/><rect x="147.11" y="186.00" width="8.28" height="8.28"/><rect x="154.89" y="186.00" width="8.28" height="8.28"/><rect x="201.56" y="186.00" width="8.28" height="8.28"/><rect x="209.33" y="186.00" width="8.28" height="8.28"/><rect x="217.11" y="186.00" width="8.28" height="8.28"/><rect x="224.89" y="186.00" width="8.28" height="8.28"/><rect x="232.67" y="186.00" width="8.28" height="8.28"/><rect x="240.44" y="186.00" width="8.28" height="8.28"/><rect x="248.22" y="186.00" width="8.28" height="8.28"/><rect x="256.00" y="186.00" width="8.28" height="8.28"/><rect x="131.56" y="193.78" width="8.28" height="8.28"/><rect x="139.33" y="193.78" width="8.28" height="8.28"/><rect x="147.11" y="193.78" width="8.28" height="8.28"/><rect x="154.89" y="193.78" width="8.28" height="8.28"/><rect x="201.56" y="193.78" width="8.28" height="8.28"/><rect x="209.33" y="193.78" width="8.28" height="8.28"/><rect x="217.11" y="193.78" width="8.28" height="8.28"/><rect x="224.89" y="193.78" width="8.28" height="8.28"/><rect x="232.67" y="193.78" width="8.28" height="8.28"/><rect x="240.44" y="193.78" width="8.28" height="8.28"/><rect x="248.22" y="193.78" width="8.28" height="8.28"/><rect x="256.00" y="193.78" width="8.28" height="8.28"/><rect x="131.56" y="201.56" width="8.28" height="8.28"/><rect x="139.33" y="201.56" width="8.28" height="8.28"/><rect x="147.11" y="201.56" width="8.28" height="8.28"/><rect x="154.89" y="201.56" width="8.28" height="8.28"/><rect x="201.56" y="201.56" width="8.28" height="8.28"/><rect x="209.33" y="201.56" width="8.28" height="8.28"/><rect x="217.11" y="201.56" width="8.28" height="8.28"/><rect x="224.89" y="201.56" width="8.28" height="8.28"/><rect x="131.56" y="209.33" width="8.28" height="8.28"/><rect x="139.33" y="209.33" width="8.28" height="8.28"/><rect x="147.11" y="209.33" width="8.28" height="8.28"/><rect x="154.89" y="209.33" width="8.28" height="8.28"/><rect x="201.56" y="209.33" width="8.28" height="8.28"/><rect x="209.33" y="209.33" width="8.28" height="8.28"/><rect x="217.11" y="209.33" width="8.28" height="8.28"/><rect x="224.89" y="209.33" width="8.28" height="8.28"/><rect x="131.56" y="217.11" width="8.28" height="8.28"/><rect x="139.33" y="217.11" width="8.28" height="8.28"/><rect x="147.11" y="217.11" width="8.28" height="8.28"/><rect x="154.89" y="217.11" width="8.28" height="8.28"/><rect x="186.00" y="217.11" width="8.28" height="8.28"/><rect x="193.78" y="217.11" width="8.28" height="8.28"/><rect x="201.56" y="217.11" width="8.28" height="8.28"/><rect x="209.33" y="217.11" width="8.28" height="8.28"/><rect x="217.11" y="217.11" width="8.28" height="8.28"/><rect x="224.89" y="217.11" width="8.28" height="8.28"/><rect x="232.67" y="217.11" width="8.28" height="8.28"/><rect x="240.44" y="217.11" width="8.28" height="8.28"/><rect x="248.22" y="217.11" width="8.28" height="8.28"/><rect x="256.00" y="217.11" width="8.28" height="8.28"/><rect x="294.89" y="217.11" width="8.28" height="8.28"/><rect x="302.67" y="217.11" width="8.28" height="8.28"/><rect x="310.44" y="217.11" width="8.28" height="8.28"/><rect x="318.22" y="217.11" width="8.28" height="8.28"/><rect x="326.00" y="217.11" width="8.28" height="8.28"/><rect x="349.33" y="217.11" width="8.28" height="8.28"/><rect x="357.11" y="217.11" width="8.28" height="8.28"/><rect x="364.89" y="217.11" width="8.28" height="8.28"/><rect x="372.67" y="217.11" width="8.28" height="8.28"/><rect x="388.22" y="217.11" width="8.28" height="8.28"/><rect x="131.56" y="224.89" width="8.28" height="8.28"/><rect x="139.33" y="224.89" width="8.28" height="8.28"/><rect x="147.11" y="224.89" width="8.28" height="8.28"/><rect x="154.89" y="224.89" width="8.28" height="8.28"/><rect x="186.00" y="224.89" width="8.28" height="8.28"/><rect x="193.78" y="224.89" width="8.28" height="8.28"/><rect x="201.56" y="224.89" width="8.28" height="8.28"/><rect x="209.33" y="224.89" width="8.28" height="8.28"/><rect x="217.11" y="224.89" width="8.28" height="8.28"/><rect x="224.89" y="224.89" width="8.28" height="8.28"/><rect x="232.67" y="224.89" width="8.28" height="8.28"/><rect x="240.44" y="224.89" width="8.28" height="8.28"/><rect x="248.22" y="224.89" width="8.28" height="8.28"/><rect x="256.00" y="224.89" width="8.28" height="8.28"/><rect x="287.11" y="224.89" width="8.28" height="8.28"/><rect x="294.89" y="224.89" width="8.28" height="8.28"/><rect x="302.67" y="224.89" width="8.28" height="8.28"/><rect x="310.44" y="224.89" width="8.28" height="8.28"/><rect x="318.22" y="224.89" width="8.28" height="8.28"/><rect x="326.00" y="224.89" width="8.28" height="8.28"/><rect x="333.78" y="224.89" width="8.28" height="8.28"/><rect x="349.33" y="224.89" width="8.28" height="8.28"/><rect x="357.11" y="224.89" width="8.28" height="8.28"/><rect x="364.89" y="224.89" width="8.28" height="8.28"/><rect x="131.56" y="232.67" width="8.28" height="8.28"/><rect x="139.33" y="232.67" width="8.28" height="8.28"/><rect x="147.11" y="232.67" width="8.28" height="8.28"/><rect x="154.89" y="232.67" width="8.28" height="8.28"/><rect x="186.00" y="232.67" width="8.28" height="8.28"/><rect x="193.78" y="232.67" width="8.28" height="8.28"/><rect x="201.56" y="232.67" width="8.28" height="8.28"/><rect x="209.33" y="232.67" width="8.28" height="8.28"/><rect x="217.11" y="232.67" width="8.28" height="8.28"/><rect x="224.89" y="232.67" width="8.28" height="8.28"/><rect x="232.67" y="232.67" width="8.28" height="8.28"/><rect x="240.44" y="232.67" width="8.28" height="8.28"/><rect x="248.22" y="232.67" width="8.28" height="8.28"/><rect x="256.00" y="232.67" width="8.28" height="8.28"/><rect x="279.33" y="232.67" width="8.28" height="8.28"/><rect x="287.11" y="232.67" width="8.28" height="8.28"/><rect x="294.89" y="232.67" width="8.28" height="8.28"/><rect x="302.67" y="232.67" width="8.28" height="8.28"/><rect x="310.44" y="232.67" width="8.28" height="8.28"/><rect x="318.22" y="232.67" width="8.28" height="8.28"/><rect x="326.00" y="232.67" width="8.28" height="8.28"/><rect x="333.78" y="232.67" width="8.28" height="8.28"/><rect x="341.56" y="232.67" width="8.28" height="8.28"/><rect x="349.33" y="232.67" width="8.28" height="8.28"/><rect x="357.11" y="232.67" width="8.28" height="8.28"/><rect x="364.89" y="232.67" width="8.28" height="8.28"/><rect x="372.67" y="232.67" width="8.28" height="8.28"/><rect x="131.56" y="240.44" width="8.28" height="8.28"/><rect x="139.33" y="240.44" width="8.28" height="8.28"/><rect x="147.11" y="240.44" width="8.28" height="8.28"/><rect x="154.89" y="240.44" width="8.28" height="8.28"/><rect x="201.56" y="240.44" width="8.28" height="8.28"/><rect x="209.33" y="240.44" width="8.28" height="8.28"/><rect x="217.11" y="240.44" width="8.28" height="8.28"/><rect x="224.89" y="240.44" width="8.28" height="8.28"/><rect x="271.56" y="240.44" width="8.28" height="8.28"/><rect x="279.33" y="240.44" width="8.28" height="8.28"/><rect x="287.11" y="240.44" width="8.28" height="8.28"/><rect x="294.89" y="240.44" width="8.28" height="8.28"/><rect x="302.67" y="240.44" width="8.28" height="8.28"/><rect x="341.56" y="240.44" width="8.28" height="8.28"/><rect x="349.33" y="240.44" width="8.28" height="8.28"/><rect x="364.89" y="240.44" width="8.28" height="8.28"/><rect x="131.56" y="248.22" width="8.28" height="8.28"/><rect x="139.33" y="248.22" width="8.28" height="8.28"/><rect x="147.11" y="248.22" width="8.28" height="8.28"/><rect x="154.89" y="248.22" width="8.28" height="8.28"/><rect x="201.56" y="248.22" width="8.28" height="8.28"/><rect x="209.33" y="248.22" width="8.28" height="8.28"/><rect x="217.11" y="248.22" width="8.28" height="8.28"/><rect x="224.89" y="248.22" width="8.28" height="8.28"/><rect x="271.56" y="248.22" width="8.28" height="8.28"/><rect x="279.33" y="248.22" width="8.28" height="8.28"/><rect x="287.11" y="248.22" width="8.28" height="8.28"/><rect x="294.89" y="248.22" width="8.28" height="8.28"/><rect x="302.67" y="248.22" width="8.28" height="8.28"/><rect x="341.56" y="248.22" width="8.28" height="8.28"/><rect x="349.33" y="248.22" width="8.28" height="8.28"/><rect x="357.11" y="248.22" width="8.28" height="8.28"/><rect x="364.89" y="248.22" width="8.28" height="8.28"/><rect x="372.67" y="248.22" width="8.28" height="8.28"/><rect x="388.22" y="248.22" width="8.28" height="8.28"/><rect x="131.56" y="256.00" width="8.28" height="8.28"/><rect x="139.33" y="256.00" width="8.28" height="8.28"/><rect x="147.11" y="256.00" width="8.28" height="8.28"/><rect x="154.89" y="256.00" width="8.28" height="8.28"/><rect x="201.56" y="256.00" width="8.28" height="8.28"/><rect x="209.33" y="256.00" width="8.28" height="8.28"/><rect x="217.11" y="256.00" width="8.28" height="8.28"/><rect x="224.89" y="256.00" width="8.28" height="8.28"/><rect x="271.56" y="256.00" width="8.28" height="8.28"/><rect x="279.33" y="256.00" width="8.28" height="8.28"/><rect x="287.11" y="256.00" width="8.28" height="8.28"/><rect x="294.89" y="256.00" width="8.28" height="8.28"/><rect x="349.33" y="256.00" width="8.28" height="8.28"/><rect x="364.89" y="256.00" width="8.28" height="8.28"/><rect x="131.56" y="263.78" width="8.28" height="8.28"/><rect x="139.33" y="263.78" width="8.28" height="8.28"/><rect x="147.11" y="263.78" width="8.28" height="8.28"/><rect x="154.89" y="263.78" width="8.28" height="8.28"/><rect x="201.56" y="263.78" width="8.28" height="8.28"/><rect x="209.33" y="263.78" width="8.28" height="8.28"/><rect x="217.11" y="263.78" width="8.28" height="8.28"/><rect x="224.89" y="263.78" width="8.28" height="8.28"/><rect x="271.56" y="263.78" width="8.28" height="8.28"/><rect x="279.33" y="263.78" width="8.28" height="8.28"/><rect x="287.11" y="263.78" width="8.28" height="8.28"/><rect x="294.89" y="263.78" width="8.28" height="8.28"/><rect x="349.33" y="263.78" width="8.28" height="8.28"/><rect x="357.11" y="263.78" width="8.28" height="8.28"/><rect x="372.67" y="263.78" width="8.28" height="8.28"/><rect x="131.56" y="271.56" width="8.28" height="8.28"/><rect x="139.33" y="271.56" width="8.28" height="8.28"/><rect x="147.11" y="271.56" width="8.28" height="8.28"/><rect x="154.89" y="271.56" width="8.28" height="8.28"/><rect x="201.56" y="271.56" width="8.28" height="8.28"/><rect x="209.33" y="271.56" width="8.28" height="8.28"/><rect x="217.11" y="271.56" width="8.28" height="8.28"/><rect x="224.89" y="271.56" width="8.28" height="8.28"/><rect x="271.56" y="271.56" width="8.28" height="8.28"/><rect x="279.33" y="271.56" width="8.28" height="8.28"/><rect x="287.11" y="271.56" width="8.28" height="8.28"/><rect x="294.89" y="271.56" width="8.28" height="8.28"/><rect x="349.33" y="271.56" width="8.28" height="8.28"/><rect x="364.89" y="271.56" width="8.28" height="8.28"/><rect x="131.56" y="279.33" width="8.28" height="8.28"/><rect x="139.33" y="279.33" width="8.28" height="8.28"/><rect x="147.11" y="279.33" width="8.28" height="8.28"/><rect x="154.89" y="279.33" width="8.28" height="8.28"/><rect x="201.56" y="279.33" width="8.28" height="8.28"/><rect x="209.33" y="279.33" width="8.28" height="8.28"/><rect x="217.11" y="279.33" width="8.28" height="8.28"/><rect x="224.89" y="279.33" width="8.28" height="8.28"/><rect x="271.56" y="279.33" width="8.28" height="8.28"/><rect x="279.33" y="279.33" width="8.28" height="8.28"/><rect x="287.11" y="279.33" width="8.28" height="8.28"/><rect x="294.89" y="279.33" width="8.28" height="8.28"/><rect x="302.67" y="279.33" width="8.28" height="8.28"/><rect x="349.33" y="279.33" width="8.28" height="8.28"/><rect x="357.11" y="279.33" width="8.28" height="8.28"/><rect x="364.89" y="279.33" width="8.28" height="8.28"/><rect x="372.67" y="279.33" width="8.28" height="8.28"/><rect x="388.22" y="279.33" width="8.28" height="8.28"/><rect x="131.56" y="287.11" width="8.28" height="8.28"/><rect x="139.33" y="287.11" width="8.28" height="8.28"/><rect x="147.11" y="287.11" width="8.28" height="8.28"/><rect x="154.89" y="287.11" width="8.28" height="8.28"/><rect x="201.56" y="287.11" width="8.28" height="8.28"/><rect x="209.33" y="287.11" width="8.28" height="8.28"/><rect x="217.11" y="287.11" width="8.28" height="8.28"/><rect x="224.89" y="287.11" width="8.28" height="8.28"/><rect x="271.56" y="287.11" width="8.28" height="8.28"/><rect x="279.33" y="287.11" width="8.28" height="8.28"/><rect x="287.11" y="287.11" width="8.28" height="8.28"/><rect x="294.89" y="287.11" width="8.28" height="8.28"/><rect x="302.67" y="287.11" width="8.28" height="8.28"/><rect x="349.33" y="287.11" width="8.28" height="8.28"/><rect x="364.89" y="287.11" width="8.28" height="8.28"/><rect x="131.56" y="294.89" width="8.28" height="8.28"/><rect x="139.33" y="294.89" width="8.28" height="8.28"/><rect x="147.11" y="294.89" width="8.28" height="8.28"/><rect x="154.89" y="294.89" width="8.28" height="8.28"/><rect x="201.56" y="294.89" width="8.28" height="8.28"/><rect x="209.33" y="294.89" width="8.28" height="8.28"/><rect x="217.11" y="294.89" width="8.28" height="8.28"/><rect x="224.89" y="294.89" width="8.28" height="8.28"/><rect x="279.33" y="294.89" width="8.28" height="8.28"/><rect x="287.11" y="294.89" width="8.28" height="8.28"/><rect x="294.89" y="294.89" width="8.28" height="8.28"/><rect x="302.67" y="294.89" width="8.28" height="8.28"/><rect x="310.44" y="294.89" width="8.28" height="8.28"/><rect x="318.22" y="294.89" width="8.28" height="8.28"/><rect x="326.00" y="294.89" width="8.28" height="8.28"/><rect x="341.56" y="294.89" width="8.28" height="8.28"/><rect x="349.33" y="294.89" width="8.28" height="8.28"/><rect x="357.11" y="294.89" width="8.28" height="8.28"/><rect x="372.67" y="294.89" width="8.28" height="8.28"/><rect x="131.56" y="302.67" width="8.28" height="8.28"/><rect x="139.33" y="302.67" width="8.28" height="8.28"/><rect x="147.11" y="302.67" width="8.28" height="8.28"/><rect x="154.89" y="302.67" width="8.28" height="8.28"/><rect x="201.56" y="302.67" width="8.28" height="8.28"/><rect x="209.33" y="302.67" width="8.28" height="8.28"/><rect x="217.11" y="302.67" width="8.28" height="8.28"/><rect x="224.89" y="302.67" width="8.28" height="8.28"/><rect x="279.33" y="302.67" width="8.28" height="8.28"/><rect x="287.11" y="302.67" width="8.28" height="8.28"/><rect x="302.67" y="302.67" width="8.28" height="8.28"/><rect x="318.22" y="302.67" width="8.28" height="8.28"/><rect x="333.78" y="302.67" width="8.28" height="8.28"/><rect x="349.33" y="302.67" width="8.28" height="8.28"/><rect x="364.89" y="302.67" width="8.28" height="8.28"/><rect x="380.44" y="302.67" width="8.28" height="8.28"/><rect x="131.56" y="310.44" width="8.28" height="8.28"/><rect x="139.33" y="310.44" width="8.28" height="8.28"/><rect x="147.11" y="310.44" width="8.28" height="8.28"/><rect x="154.89" y="310.44" width="8.28" height="8.28"/><rect x="201.56" y="310.44" width="8.28" height="8.28"/><rect x="209.33" y="310.44" width="8.28" height="8.28"/><rect x="217.11" y="310.44" width="8.28" height="8.28"/><rect x="224.89" y="310.44" width="8.28" height="8.28"/><rect x="287.11" y="310.44" width="8.28" height="8.28"/><rect x="294.89" y="310.44" width="8.28" height="8.28"/><rect x="302.67" y="310.44" width="8.28" height="8.28"/><rect x="310.44" y="310.44" width="8.28" height="8.28"/><rect x="318.22" y="310.44" width="8.28" height="8.28"/><rect x="326.00" y="310.44" width="8.28" height="8.28"/><rect x="333.78" y="310.44" width="8.28" height="8.28"/><rect x="341.56" y="310.44" width="8.28" height="8.28"/><rect x="357.11" y="310.44" width="8.28" height="8.28"/><rect x="372.67" y="310.44" width="8.28" height="8.28"/><rect x="388.22" y="310.44" width="8.28" height="8.28"/><rect x="333.78" y="318.22" width="8.28" height="8.28"/><rect x="349.33" y="318.22" width="8.28" height="8.28"/><rect x="364.89" y="318.22" width="8.28" height="8.28"/><rect x="380.44" y="318.22" width="8.28" height="8.28"/><rect x="279.33" y="326.00" width="8.28" height="8.28"/><rect x="310.44" y="326.00" width="8.28" height="8.28"/><rect x="326.00" y="326.00" width="8.28" height="8.28"/><rect x="341.56" y="326.00" width="8.28" height="8.28"/><rect x="357.11" y="326.00" width="8.28" height="8.28"/><rect x="372.67" y="326.00" width="8.28" height="8.28"/><rect x="388.22" y="326.00" width="8.28" height="8.28"/><rect x="287.11" y="333.78" width="8.28" height="8.28"/><rect x="333.78" y="333.78" width="8.28" height="8.28"/><rect x="349.33" y="333.78" width="8.28" height="8.28"/><rect x="380.44" y="333.78" width="8.28" height="8.28"/><rect x="263.78" y="341.56" width="8.28" height="8.28"/><rect x="279.33" y="341.56" width="8.28" height="8.28"/><rect x="287.11" y="341.56" width="8.28" height="8.28"/><rect x="294.89" y="341.56" width="8.28" height="8.28"/><rect x="302.67" y="341.56" width="8.28" height="8.28"/><rect x="310.44" y="341.56" width="8.28" height="8.28"/><rect x="326.00" y="341.56" width="8.28" height="8.28"/><rect x="341.56" y="341.56" width="8.28" height="8.28"/><rect x="357.11" y="341.56" width="8.28" height="8.28"/><rect x="372.67" y="341.56" width="8.28" height="8.28"/><rect x="388.22" y="341.56" width="8.28" height="8.28"/><rect x="287.11" y="349.33" width="8.28" height="8.28"/><rect x="302.67" y="349.33" width="8.28" height="8.28"/><rect x="318.22" y="349.33" width="8.28" height="8.28"/><rect x="333.78" y="349.33" width="8.28" height="8.28"/><rect x="364.89" y="349.33" width="8.28" height="8.28"/><rect x="279.33" y="357.11" width="8.28" height="8.28"/><rect x="294.89" y="357.11" width="8.28" height="8.28"/><rect x="310.44" y="357.11" width="8.28" height="8.28"/><rect x="326.00" y="357.11" width="8.28" height="8.28"/><rect x="341.56" y="357.11" width="8.28" height="8.28"/><rect x="357.11" y="357.11" width="8.28" height="8.28"/><rect x="372.67" y="357.11" width="8.28" height="8.28"/><rect x="318.22" y="364.89" width="8.28" height="8.28"/><rect x="294.89" y="372.67" width="8.28" height="8.28"/><rect x="310.44" y="372.67" width="8.28" height="8.28"/><rect x="326.00" y="372.67" width="8.28" height="8.28"/><rect x="341.56" y="372.67" width="8.28" height="8.28"/></g><g id="mmini" fill="#ffffff"><rect x="131.56" y="178.22" width="8.28" height="8.28"/><rect x="139.33" y="178.22" width="8.28" height="8.28"/><rect x="147.11" y="178.22" width="8.28" height="8.28"/><rect x="154.89" y="178.22" width="8.28" height="8.28"/><rect x="217.11" y="178.22" width="8.28" height="8.28"/><rect x="224.89" y="178.22" width="8.28" height="8.28"/><rect x="232.67" y="178.22" width="8.28" height="8.28"/><rect x="240.44" y="178.22" width="8.28" height="8.28"/><rect x="248.22" y="178.22" width="8.28" height="8.28"/><rect x="256.00" y="178.22" width="8.28" height="8.28"/><rect x="131.56" y="186.00" width="8.28" height="8.28"/><rect x="139.33" y="186.00" width="8.28" height="8.28"/><rect x="147.11" y="186.00" width="8.28" height="8.28"/><rect x="154.89" y="186.00" width="8.28" height="8.28"/><rect x="201.56" y="186.00" width="8.28" height="8.28"/><rect x="209.33" y="186.00" width="8.28" height="8.28"/><rect x="217.11" y="186.00" width="8.28" height="8.28"/><rect x="224.89" y="186.00" width="8.28" height="8.28"/><rect x="232.67" y="186.00" width="8.28" height="8.28"/><rect x="240.44" y="186.00" width="8.28" height="8.28"/><rect x="248.22" y="186.00" width="8.28" height="8.28"/><rect x="256.00" y="186.00" width="8.28" height="8.28"/><rect x="131.56" y="193.78" width="8.28" height="8.28"/><rect x="139.33" y="193.78" width="8.28" height="8.28"/><rect x="147.11" y="193.78" width="8.28" height="8.28"/><rect x="154.89" y="193.78" width="8.28" height="8.28"/><rect x="201.56" y="193.78" width="8.28" height="8.28"/><rect x="209.33" y="193.78" width="8.28" height="8.28"/><rect x="217.11" y="193.78" width="8.28" height="8.28"/><rect x="224.89" y="193.78" width="8.28" height="8.28"/><rect x="232.67" y="193.78" width="8.28" height="8.28"/><rect x="240.44" y="193.78" width="8.28" height="8.28"/><rect x="248.22" y="193.78" width="8.28" height="8.28"/><rect x="256.00" y="193.78" width="8.28" height="8.28"/><rect x="131.56" y="201.56" width="8.28" height="8.28"/><rect x="139.33" y="201.56" width="8.28" height="8.28"/><rect x="147.11" y="201.56" width="8.28" height="8.28"/><rect x="154.89" y="201.56" width="8.28" height="8.28"/><rect x="201.56" y="201.56" width="8.28" height="8.28"/><rect x="209.33" y="201.56" width="8.28" height="8.28"/><rect x="217.11" y="201.56" width="8.28" height="8.28"/><rect x="224.89" y="201.56" width="8.28" height="8.28"/><rect x="131.56" y="209.33" width="8.28" height="8.28"/><rect x="139.33" y="209.33" width="8.28" height="8.28"/><rect x="147.11" y="209.33" width="8.28" height="8.28"/><rect x="154.89" y="209.33" width="8.28" height="8.28"/><rect x="201.56" y="209.33" width="8.28" height="8.28"/><rect x="209.33" y="209.33" width="8.28" height="8.28"/><rect x="217.11" y="209.33" width="8.28" height="8.28"/><rect x="224.89" y="209.33" width="8.28" height="8.28"/><rect x="131.56" y="217.11" width="8.28" height="8.28"/><rect x="139.33" y="217.11" width="8.28" height="8.28"/><rect x="147.11" y="217.11" width="8.28" height="8.28"/><rect x="154.89" y="217.11" width="8.28" height="8.28"/><rect x="186.00" y="217.11" width="8.28" height="8.28"/><rect x="193.78" y="217.11" width="8.28" height="8.28"/><rect x="201.56" y="217.11" width="8.28" height="8.28"/><rect x="209.33" y="217.11" width="8.28" height="8.28"/><rect x="217.11" y="217.11" width="8.28" height="8.28"/><rect x="224.89" y="217.11" width="8.28" height="8.28"/><rect x="232.67" y="217.11" width="8.28" height="8.28"/><rect x="240.44" y="217.11" width="8.28" height="8.28"/><rect x="248.22" y="217.11" width="8.28" height="8.28"/><rect x="256.00" y="217.11" width="8.28" height="8.28"/><rect x="294.89" y="217.11" width="8.28" height="8.28"/><rect x="302.67" y="217.11" width="8.28" height="8.28"/><rect x="310.44" y="217.11" width="8.28" height="8.28"/><rect x="318.22" y="217.11" width="8.28" height="8.28"/><rect x="326.00" y="217.11" width="8.28" height="8.28"/><rect x="349.33" y="217.11" width="8.28" height="8.28"/><rect x="357.11" y="217.11" width="8.28" height="8.28"/><rect x="364.89" y="217.11" width="8.28" height="8.28"/><rect x="372.67" y="217.11" width="8.28" height="8.28"/><rect x="131.56" y="224.89" width="8.28" height="8.28"/><rect x="139.33" y="224.89" width="8.28" height="8.28"/><rect x="147.11" y="224.89" width="8.28" height="8.28"/><rect x="154.89" y="224.89" width="8.28" height="8.28"/><rect x="186.00" y="224.89" width="8.28" height="8.28"/><rect x="193.78" y="224.89" width="8.28" height="8.28"/><rect x="201.56" y="224.89" width="8.28" height="8.28"/><rect x="209.33" y="224.89" width="8.28" height="8.28"/><rect x="217.11" y="224.89" width="8.28" height="8.28"/><rect x="224.89" y="224.89" width="8.28" height="8.28"/><rect x="232.67" y="224.89" width="8.28" height="8.28"/><rect x="240.44" y="224.89" width="8.28" height="8.28"/><rect x="248.22" y="224.89" width="8.28" height="8.28"/><rect x="256.00" y="224.89" width="8.28" height="8.28"/><rect x="287.11" y="224.89" width="8.28" height="8.28"/><rect x="294.89" y="224.89" width="8.28" height="8.28"/><rect x="302.67" y="224.89" width="8.28" height="8.28"/><rect x="310.44" y="224.89" width="8.28" height="8.28"/><rect x="318.22" y="224.89" width="8.28" height="8.28"/><rect x="326.00" y="224.89" width="8.28" height="8.28"/><rect x="333.78" y="224.89" width="8.28" height="8.28"/><rect x="349.33" y="224.89" width="8.28" height="8.28"/><rect x="357.11" y="224.89" width="8.28" height="8.28"/><rect x="364.89" y="224.89" width="8.28" height="8.28"/><rect x="372.67" y="224.89" width="8.28" height="8.28"/><rect x="131.56" y="232.67" width="8.28" height="8.28"/><rect x="139.33" y="232.67" width="8.28" height="8.28"/><rect x="147.11" y="232.67" width="8.28" height="8.28"/><rect x="154.89" y="232.67" width="8.28" height="8.28"/><rect x="186.00" y="232.67" width="8.28" height="8.28"/><rect x="193.78" y="232.67" width="8.28" height="8.28"/><rect x="201.56" y="232.67" width="8.28" height="8.28"/><rect x="209.33" y="232.67" width="8.28" height="8.28"/><rect x="217.11" y="232.67" width="8.28" height="8.28"/><rect x="224.89" y="232.67" width="8.28" height="8.28"/><rect x="232.67" y="232.67" width="8.28" height="8.28"/><rect x="240.44" y="232.67" width="8.28" height="8.28"/><rect x="248.22" y="232.67" width="8.28" height="8.28"/><rect x="256.00" y="232.67" width="8.28" height="8.28"/><rect x="279.33" y="232.67" width="8.28" height="8.28"/><rect x="287.11" y="232.67" width="8.28" height="8.28"/><rect x="294.89" y="232.67" width="8.28" height="8.28"/><rect x="302.67" y="232.67" width="8.28" height="8.28"/><rect x="310.44" y="232.67" width="8.28" height="8.28"/><rect x="318.22" y="232.67" width="8.28" height="8.28"/><rect x="326.00" y="232.67" width="8.28" height="8.28"/><rect x="333.78" y="232.67" width="8.28" height="8.28"/><rect x="341.56" y="232.67" width="8.28" height="8.28"/><rect x="349.33" y="232.67" width="8.28" height="8.28"/><rect x="357.11" y="232.67" width="8.28" height="8.28"/><rect x="364.89" y="232.67" width="8.28" height="8.28"/><rect x="372.67" y="232.67" width="8.28" height="8.28"/><rect x="131.56" y="240.44" width="8.28" height="8.28"/><rect x="139.33" y="240.44" width="8.28" height="8.28"/><rect x="147.11" y="240.44" width="8.28" height="8.28"/><rect x="154.89" y="240.44" width="8.28" height="8.28"/><rect x="201.56" y="240.44" width="8.28" height="8.28"/><rect x="209.33" y="240.44" width="8.28" height="8.28"/><rect x="217.11" y="240.44" width="8.28" height="8.28"/><rect x="224.89" y="240.44" width="8.28" height="8.28"/><rect x="271.56" y="240.44" width="8.28" height="8.28"/><rect x="279.33" y="240.44" width="8.28" height="8.28"/><rect x="287.11" y="240.44" width="8.28" height="8.28"/><rect x="294.89" y="240.44" width="8.28" height="8.28"/><rect x="302.67" y="240.44" width="8.28" height="8.28"/><rect x="341.56" y="240.44" width="8.28" height="8.28"/><rect x="349.33" y="240.44" width="8.28" height="8.28"/><rect x="357.11" y="240.44" width="8.28" height="8.28"/><rect x="364.89" y="240.44" width="8.28" height="8.28"/><rect x="372.67" y="240.44" width="8.28" height="8.28"/><rect x="131.56" y="248.22" width="8.28" height="8.28"/><rect x="139.33" y="248.22" width="8.28" height="8.28"/><rect x="147.11" y="248.22" width="8.28" height="8.28"/><rect x="154.89" y="248.22" width="8.28" height="8.28"/><rect x="201.56" y="248.22" width="8.28" height="8.28"/><rect x="209.33" y="248.22" width="8.28" height="8.28"/><rect x="217.11" y="248.22" width="8.28" height="8.28"/><rect x="224.89" y="248.22" width="8.28" height="8.28"/><rect x="271.56" y="248.22" width="8.28" height="8.28"/><rect x="279.33" y="248.22" width="8.28" height="8.28"/><rect x="287.11" y="248.22" width="8.28" height="8.28"/><rect x="294.89" y="248.22" width="8.28" height="8.28"/><rect x="302.67" y="248.22" width="8.28" height="8.28"/><rect x="341.56" y="248.22" width="8.28" height="8.28"/><rect x="349.33" y="248.22" width="8.28" height="8.28"/><rect x="357.11" y="248.22" width="8.28" height="8.28"/><rect x="364.89" y="248.22" width="8.28" height="8.28"/><rect x="372.67" y="248.22" width="8.28" height="8.28"/><rect x="131.56" y="256.00" width="8.28" height="8.28"/><rect x="139.33" y="256.00" width="8.28" height="8.28"/><rect x="147.11" y="256.00" width="8.28" height="8.28"/><rect x="154.89" y="256.00" width="8.28" height="8.28"/><rect x="201.56" y="256.00" width="8.28" height="8.28"/><rect x="209.33" y="256.00" width="8.28" height="8.28"/><rect x="217.11" y="256.00" width="8.28" height="8.28"/><rect x="224.89" y="256.00" width="8.28" height="8.28"/><rect x="271.56" y="256.00" width="8.28" height="8.28"/><rect x="279.33" y="256.00" width="8.28" height="8.28"/><rect x="287.11" y="256.00" width="8.28" height="8.28"/><rect x="294.89" y="256.00" width="8.28" height="8.28"/><rect x="349.33" y="256.00" width="8.28" height="8.28"/><rect x="357.11" y="256.00" width="8.28" height="8.28"/><rect x="364.89" y="256.00" width="8.28" height="8.28"/><rect x="372.67" y="256.00" width="8.28" height="8.28"/><rect x="131.56" y="263.78" width="8.28" height="8.28"/><rect x="139.33" y="263.78" width="8.28" height="8.28"/><rect x="147.11" y="263.78" width="8.28" height="8.28"/><rect x="154.89" y="263.78" width="8.28" height="8.28"/><rect x="201.56" y="263.78" width="8.28" height="8.28"/><rect x="209.33" y="263.78" width="8.28" height="8.28"/><rect x="217.11" y="263.78" width="8.28" height="8.28"/><rect x="224.89" y="263.78" width="8.28" height="8.28"/><rect x="271.56" y="263.78" width="8.28" height="8.28"/><rect x="279.33" y="263.78" width="8.28" height="8.28"/><rect x="287.11" y="263.78" width="8.28" height="8.28"/><rect x="294.89" y="263.78" width="8.28" height="8.28"/><rect x="349.33" y="263.78" width="8.28" height="8.28"/><rect x="357.11" y="263.78" width="8.28" height="8.28"/><rect x="364.89" y="263.78" width="8.28" height="8.28"/><rect x="372.67" y="263.78" width="8.28" height="8.28"/><rect x="131.56" y="271.56" width="8.28" height="8.28"/><rect x="139.33" y="271.56" width="8.28" height="8.28"/><rect x="147.11" y="271.56" width="8.28" height="8.28"/><rect x="154.89" y="271.56" width="8.28" height="8.28"/><rect x="201.56" y="271.56" width="8.28" height="8.28"/><rect x="209.33" y="271.56" width="8.28" height="8.28"/><rect x="217.11" y="271.56" width="8.28" height="8.28"/><rect x="224.89" y="271.56" width="8.28" height="8.28"/><rect x="271.56" y="271.56" width="8.28" height="8.28"/><rect x="279.33" y="271.56" width="8.28" height="8.28"/><rect x="287.11" y="271.56" width="8.28" height="8.28"/><rect x="294.89" y="271.56" width="8.28" height="8.28"/><rect x="349.33" y="271.56" width="8.28" height="8.28"/><rect x="357.11" y="271.56" width="8.28" height="8.28"/><rect x="364.89" y="271.56" width="8.28" height="8.28"/><rect x="372.67" y="271.56" width="8.28" height="8.28"/><rect x="131.56" y="279.33" width="8.28" height="8.28"/><rect x="139.33" y="279.33" width="8.28" height="8.28"/><rect x="147.11" y="279.33" width="8.28" height="8.28"/><rect x="154.89" y="279.33" width="8.28" height="8.28"/><rect x="201.56" y="279.33" width="8.28" height="8.28"/><rect x="209.33" y="279.33" width="8.28" height="8.28"/><rect x="217.11" y="279.33" width="8.28" height="8.28"/><rect x="224.89" y="279.33" width="8.28" height="8.28"/><rect x="271.56" y="279.33" width="8.28" height="8.28"/><rect x="279.33" y="279.33" width="8.28" height="8.28"/><rect x="287.11" y="279.33" width="8.28" height="8.28"/><rect x="294.89" y="279.33" width="8.28" height="8.28"/><rect x="302.67" y="279.33" width="8.28" height="8.28"/><rect x="349.33" y="279.33" width="8.28" height="8.28"/><rect x="357.11" y="279.33" width="8.28" height="8.28"/><rect x="364.89" y="279.33" width="8.28" height="8.28"/><rect x="372.67" y="279.33" width="8.28" height="8.28"/><rect x="131.56" y="287.11" width="8.28" height="8.28"/><rect x="139.33" y="287.11" width="8.28" height="8.28"/><rect x="147.11" y="287.11" width="8.28" height="8.28"/><rect x="154.89" y="287.11" width="8.28" height="8.28"/><rect x="201.56" y="287.11" width="8.28" height="8.28"/><rect x="209.33" y="287.11" width="8.28" height="8.28"/><rect x="217.11" y="287.11" width="8.28" height="8.28"/><rect x="224.89" y="287.11" width="8.28" height="8.28"/><rect x="271.56" y="287.11" width="8.28" height="8.28"/><rect x="279.33" y="287.11" width="8.28" height="8.28"/><rect x="287.11" y="287.11" width="8.28" height="8.28"/><rect x="294.89" y="287.11" width="8.28" height="8.28"/><rect x="302.67" y="287.11" width="8.28" height="8.28"/><rect x="341.56" y="287.11" width="8.28" height="8.28"/><rect x="349.33" y="287.11" width="8.28" height="8.28"/><rect x="357.11" y="287.11" width="8.28" height="8.28"/><rect x="364.89" y="287.11" width="8.28" height="8.28"/><rect x="372.67" y="287.11" width="8.28" height="8.28"/><rect x="131.56" y="294.89" width="8.28" height="8.28"/><rect x="139.33" y="294.89" width="8.28" height="8.28"/><rect x="147.11" y="294.89" width="8.28" height="8.28"/><rect x="154.89" y="294.89" width="8.28" height="8.28"/><rect x="201.56" y="294.89" width="8.28" height="8.28"/><rect x="209.33" y="294.89" width="8.28" height="8.28"/><rect x="217.11" y="294.89" width="8.28" height="8.28"/><rect x="224.89" y="294.89" width="8.28" height="8.28"/><rect x="279.33" y="294.89" width="8.28" height="8.28"/><rect x="287.11" y="294.89" width="8.28" height="8.28"/><rect x="294.89" y="294.89" width="8.28" height="8.28"/><rect x="302.67" y="294.89" width="8.28" height="8.28"/><rect x="310.44" y="294.89" width="8.28" height="8.28"/><rect x="318.22" y="294.89" width="8.28" height="8.28"/><rect x="326.00" y="294.89" width="8.28" height="8.28"/><rect x="333.78" y="294.89" width="8.28" height="8.28"/><rect x="341.56" y="294.89" width="8.28" height="8.28"/><rect x="349.33" y="294.89" width="8.28" height="8.28"/><rect x="357.11" y="294.89" width="8.28" height="8.28"/><rect x="364.89" y="294.89" width="8.28" height="8.28"/><rect x="372.67" y="294.89" width="8.28" height="8.28"/><rect x="131.56" y="302.67" width="8.28" height="8.28"/><rect x="139.33" y="302.67" width="8.28" height="8.28"/><rect x="147.11" y="302.67" width="8.28" height="8.28"/><rect x="154.89" y="302.67" width="8.28" height="8.28"/><rect x="201.56" y="302.67" width="8.28" height="8.28"/><rect x="209.33" y="302.67" width="8.28" height="8.28"/><rect x="217.11" y="302.67" width="8.28" height="8.28"/><rect x="224.89" y="302.67" width="8.28" height="8.28"/><rect x="279.33" y="302.67" width="8.28" height="8.28"/><rect x="287.11" y="302.67" width="8.28" height="8.28"/><rect x="294.89" y="302.67" width="8.28" height="8.28"/><rect x="302.67" y="302.67" width="8.28" height="8.28"/><rect x="310.44" y="302.67" width="8.28" height="8.28"/><rect x="318.22" y="302.67" width="8.28" height="8.28"/><rect x="326.00" y="302.67" width="8.28" height="8.28"/><rect x="333.78" y="302.67" width="8.28" height="8.28"/><rect x="341.56" y="302.67" width="8.28" height="8.28"/><rect x="349.33" y="302.67" width="8.28" height="8.28"/><rect x="357.11" y="302.67" width="8.28" height="8.28"/><rect x="364.89" y="302.67" width="8.28" height="8.28"/><rect x="372.67" y="302.67" width="8.28" height="8.28"/><rect x="131.56" y="310.44" width="8.28" height="8.28"/><rect x="139.33" y="310.44" width="8.28" height="8.28"/><rect x="147.11" y="310.44" width="8.28" height="8.28"/><rect x="154.89" y="310.44" width="8.28" height="8.28"/><rect x="201.56" y="310.44" width="8.28" height="8.28"/><rect x="209.33" y="310.44" width="8.28" height="8.28"/><rect x="217.11" y="310.44" width="8.28" height="8.28"/><rect x="224.89" y="310.44" width="8.28" height="8.28"/><rect x="287.11" y="310.44" width="8.28" height="8.28"/><rect x="294.89" y="310.44" width="8.28" height="8.28"/><rect x="302.67" y="310.44" width="8.28" height="8.28"/><rect x="310.44" y="310.44" width="8.28" height="8.28"/><rect x="318.22" y="310.44" width="8.28" height="8.28"/><rect x="326.00" y="310.44" width="8.28" height="8.28"/><rect x="333.78" y="310.44" width="8.28" height="8.28"/><rect x="349.33" y="310.44" width="8.28" height="8.28"/><rect x="357.11" y="310.44" width="8.28" height="8.28"/><rect x="364.89" y="310.44" width="8.28" height="8.28"/><rect x="372.67" y="310.44" width="8.28" height="8.28"/><rect x="349.33" y="318.22" width="8.28" height="8.28"/><rect x="357.11" y="318.22" width="8.28" height="8.28"/><rect x="364.89" y="318.22" width="8.28" height="8.28"/><rect x="372.67" y="318.22" width="8.28" height="8.28"/><rect x="341.56" y="326.00" width="8.28" height="8.28"/><rect x="349.33" y="326.00" width="8.28" height="8.28"/><rect x="357.11" y="326.00" width="8.28" height="8.28"/><rect x="364.89" y="326.00" width="8.28" height="8.28"/><rect x="372.67" y="326.00" width="8.28" height="8.28"/><rect x="279.33" y="333.78" width="8.28" height="8.28"/><rect x="287.11" y="333.78" width="8.28" height="8.28"/><rect x="333.78" y="333.78" width="8.28" height="8.28"/><rect x="341.56" y="333.78" width="8.28" height="8.28"/><rect x="349.33" y="333.78" width="8.28" height="8.28"/><rect x="357.11" y="333.78" width="8.28" height="8.28"/><rect x="364.89" y="333.78" width="8.28" height="8.28"/><rect x="279.33" y="341.56" width="8.28" height="8.28"/><rect x="287.11" y="341.56" width="8.28" height="8.28"/><rect x="294.89" y="341.56" width="8.28" height="8.28"/><rect x="302.67" y="341.56" width="8.28" height="8.28"/><rect x="310.44" y="341.56" width="8.28" height="8.28"/><rect x="318.22" y="341.56" width="8.28" height="8.28"/><rect x="326.00" y="341.56" width="8.28" height="8.28"/><rect x="333.78" y="341.56" width="8.28" height="8.28"/><rect x="341.56" y="341.56" width="8.28" height="8.28"/><rect x="349.33" y="341.56" width="8.28" height="8.28"/><rect x="357.11" y="341.56" width="8.28" height="8.28"/><rect x="364.89" y="341.56" width="8.28" height="8.28"/><rect x="279.33" y="349.33" width="8.28" height="8.28"/><rect x="287.11" y="349.33" width="8.28" height="8.28"/><rect x="294.89" y="349.33" width="8.28" height="8.28"/><rect x="302.67" y="349.33" width="8.28" height="8.28"/><rect x="310.44" y="349.33" width="8.28" height="8.28"/><rect x="318.22" y="349.33" width="8.28" height="8.28"/><rect x="326.00" y="349.33" width="8.28" height="8.28"/><rect x="333.78" y="349.33" width="8.28" height="8.28"/><rect x="341.56" y="349.33" width="8.28" height="8.28"/><rect x="349.33" y="349.33" width="8.28" height="8.28"/><rect x="302.67" y="357.11" width="8.28" height="8.28"/><rect x="310.44" y="357.11" width="8.28" height="8.28"/><rect x="318.22" y="357.11" width="8.28" height="8.28"/><rect x="326.00" y="357.11" width="8.28" height="8.28"/><rect x="333.78" y="357.11" width="8.28" height="8.28"/></g></g></svg>